# xmcd
# 
# Track frame offsets:
#     150
#     22260
#     44642
#     64867
#     86140
#     107962
#     127002
#     147497
#     166662
#     184742
# 
# Disc length: 2847
# 
# Revision: 13
# Processed by: cddbd v1.5.2PL0 Copyright (c) Steve Scherf et al.
# Submitted via: fre:ac v1.0.17
# 
DISCID=970b1d0a
DTITLE=松任谷由実 - [1990_11_23] 天国のドア
DYEAR=1990
DGENRE=Pop/Rock
TTITLE0=Miss Broadcast
TTITLE1=時はかげろう
TTITLE2=Aはここにある
TTITLE3=満月のフォーチュン
TTITLE4=Glory Birdland
TTITLE5=ホタルと流れ星
TTITLE6=Man In The Moon
TTITLE7=残暑
TTITLE8=天国のドア
TTITLE9=Save Our Ship
EXTD=
EXTT0=
EXTT1=
EXTT2=
EXTT3=
EXTT4=
EXTT5=
EXTT6=
EXTT7=
EXTT8=
EXTT9=
PLAYORDER=
